<mxfile host="app.diagrams.net" modified="2024-04-06T14:50:23.298Z" agent="Mozilla/5.0 (Macintosh; Intel Mac OS X 10_15_7) AppleWebKit/605.1.15 (KHTML, like Gecko) Version/17.4 Safari/605.1.15" etag="tG4oPNd__J_Hdq0GaZr2" version="24.2.2" type="device">
  <diagram name="1 oldal" id="MYUO55xcq4zvLgNOJu1v">
    <mxGraphModel dx="2074" dy="1187" grid="1" gridSize="10" guides="1" tooltips="1" connect="1" arrows="1" fold="1" page="1" pageScale="1" pageWidth="827" pageHeight="1169" math="0" shadow="0">
      <root>
        <mxCell id="0" />
        <mxCell id="1" parent="0" />
        <mxCell id="wBleVpsHRwy3BkGDFO7Y-3" style="edgeStyle=orthogonalEdgeStyle;rounded=0;orthogonalLoop=1;jettySize=auto;html=1;strokeWidth=7;" edge="1" parent="1">
          <mxGeometry relative="1" as="geometry">
            <mxPoint x="426" y="180" as="sourcePoint" />
            <mxPoint x="420" y="370" as="targetPoint" />
            <Array as="points">
              <mxPoint x="420" y="180" />
            </Array>
          </mxGeometry>
        </mxCell>
        <mxCell id="wBleVpsHRwy3BkGDFO7Y-1" value="UI" style="shape=module;align=left;spacingLeft=20;align=center;verticalAlign=top;whiteSpace=wrap;html=1;" vertex="1" parent="1">
          <mxGeometry x="204" y="90" width="420" height="110" as="geometry" />
        </mxCell>
        <mxCell id="wBleVpsHRwy3BkGDFO7Y-2" value="Business Logic" style="shape=module;align=left;spacingLeft=20;align=center;verticalAlign=top;whiteSpace=wrap;html=1;" vertex="1" parent="1">
          <mxGeometry x="144" y="370" width="540" height="190" as="geometry" />
        </mxCell>
        <mxCell id="wBleVpsHRwy3BkGDFO7Y-4" value="Data" style="shape=module;align=left;spacingLeft=20;align=center;verticalAlign=top;whiteSpace=wrap;html=1;" vertex="1" parent="1">
          <mxGeometry x="144" y="820" width="540" height="220" as="geometry" />
        </mxCell>
        <mxCell id="wBleVpsHRwy3BkGDFO7Y-5" style="edgeStyle=orthogonalEdgeStyle;rounded=0;orthogonalLoop=1;jettySize=auto;html=1;entryX=0.5;entryY=1;entryDx=0;entryDy=0;strokeWidth=7;exitX=0.5;exitY=0;exitDx=0;exitDy=0;" edge="1" parent="1" source="wBleVpsHRwy3BkGDFO7Y-4" target="wBleVpsHRwy3BkGDFO7Y-2">
          <mxGeometry relative="1" as="geometry">
            <mxPoint x="470" y="670" as="sourcePoint" />
            <Array as="points">
              <mxPoint x="414" y="790" />
              <mxPoint x="414" y="790" />
            </Array>
          </mxGeometry>
        </mxCell>
        <mxCell id="wBleVpsHRwy3BkGDFO7Y-10" style="edgeStyle=orthogonalEdgeStyle;rounded=0;orthogonalLoop=1;jettySize=auto;html=1;strokeWidth=3;" edge="1" parent="1" source="wBleVpsHRwy3BkGDFO7Y-7" target="wBleVpsHRwy3BkGDFO7Y-9">
          <mxGeometry relative="1" as="geometry" />
        </mxCell>
        <mxCell id="wBleVpsHRwy3BkGDFO7Y-11" style="edgeStyle=orthogonalEdgeStyle;rounded=0;orthogonalLoop=1;jettySize=auto;html=1;exitX=0.5;exitY=0;exitDx=0;exitDy=0;entryX=0.5;entryY=1;entryDx=0;entryDy=0;dashed=1;dashPattern=12 12;strokeWidth=3;" edge="1" parent="1" source="wBleVpsHRwy3BkGDFO7Y-7" target="wBleVpsHRwy3BkGDFO7Y-8">
          <mxGeometry relative="1" as="geometry" />
        </mxCell>
        <mxCell id="wBleVpsHRwy3BkGDFO7Y-7" value="DatabaseAccess" style="html=1;whiteSpace=wrap;" vertex="1" parent="1">
          <mxGeometry x="190" y="915" width="110" height="50" as="geometry" />
        </mxCell>
        <mxCell id="wBleVpsHRwy3BkGDFO7Y-8" value="«interface»&lt;br&gt;&lt;b&gt;Database&lt;/b&gt;" style="html=1;whiteSpace=wrap;" vertex="1" parent="1">
          <mxGeometry x="190" y="470" width="110" height="50" as="geometry" />
        </mxCell>
        <mxCell id="wBleVpsHRwy3BkGDFO7Y-9" value="DB" style="strokeWidth=2;html=1;shape=mxgraph.flowchart.database;whiteSpace=wrap;" vertex="1" parent="1">
          <mxGeometry x="540" y="910" width="60" height="60" as="geometry" />
        </mxCell>
        <mxCell id="wBleVpsHRwy3BkGDFO7Y-18" style="edgeStyle=orthogonalEdgeStyle;rounded=0;orthogonalLoop=1;jettySize=auto;html=1;entryX=0;entryY=0.5;entryDx=0;entryDy=0;dashed=1;dashPattern=8 8;strokeWidth=2;" edge="1" parent="1" source="wBleVpsHRwy3BkGDFO7Y-12" target="wBleVpsHRwy3BkGDFO7Y-16">
          <mxGeometry relative="1" as="geometry" />
        </mxCell>
        <mxCell id="wBleVpsHRwy3BkGDFO7Y-19" style="edgeStyle=orthogonalEdgeStyle;rounded=0;orthogonalLoop=1;jettySize=auto;html=1;exitX=0;exitY=0.5;exitDx=0;exitDy=0;strokeWidth=3;" edge="1" parent="1" source="wBleVpsHRwy3BkGDFO7Y-12" target="wBleVpsHRwy3BkGDFO7Y-8">
          <mxGeometry relative="1" as="geometry" />
        </mxCell>
        <mxCell id="wBleVpsHRwy3BkGDFO7Y-12" value="Service" style="html=1;whiteSpace=wrap;" vertex="1" parent="1">
          <mxGeometry x="370" y="470" width="100" height="50" as="geometry" />
        </mxCell>
        <mxCell id="wBleVpsHRwy3BkGDFO7Y-13" value="«interface»&lt;br&gt;&lt;b&gt;UI&lt;/b&gt;" style="html=1;whiteSpace=wrap;" vertex="1" parent="1">
          <mxGeometry x="440" y="400" width="110" height="50" as="geometry" />
        </mxCell>
        <mxCell id="wBleVpsHRwy3BkGDFO7Y-15" style="edgeStyle=orthogonalEdgeStyle;rounded=0;orthogonalLoop=1;jettySize=auto;html=1;exitX=0.5;exitY=1;exitDx=0;exitDy=0;strokeWidth=3;dashed=1;dashPattern=8 8;" edge="1" parent="1" source="wBleVpsHRwy3BkGDFO7Y-14" target="wBleVpsHRwy3BkGDFO7Y-13">
          <mxGeometry relative="1" as="geometry" />
        </mxCell>
        <mxCell id="wBleVpsHRwy3BkGDFO7Y-17" style="edgeStyle=orthogonalEdgeStyle;rounded=0;orthogonalLoop=1;jettySize=auto;html=1;exitX=1;exitY=1;exitDx=0;exitDy=0;strokeWidth=3;" edge="1" parent="1" source="wBleVpsHRwy3BkGDFO7Y-14" target="wBleVpsHRwy3BkGDFO7Y-16">
          <mxGeometry relative="1" as="geometry" />
        </mxCell>
        <mxCell id="wBleVpsHRwy3BkGDFO7Y-14" value="UI" style="html=1;whiteSpace=wrap;" vertex="1" parent="1">
          <mxGeometry x="440" y="130" width="110" height="50" as="geometry" />
        </mxCell>
        <mxCell id="wBleVpsHRwy3BkGDFO7Y-16" value="«interface»&lt;br&gt;&lt;b&gt;Service&lt;/b&gt;" style="html=1;whiteSpace=wrap;" vertex="1" parent="1">
          <mxGeometry x="550" y="470" width="110" height="50" as="geometry" />
        </mxCell>
      </root>
    </mxGraphModel>
  </diagram>
</mxfile>
